<svg viewBox="0 0 266 230" xmlns="http://www.w3.org/2000/svg">
  <path d="M56.279,132.675L69.505,155.583L39.724,207.083L113.712,207.083L140.169,161.26L140.166,161.255L175.698,161.255L188.929,184.171L153.403,184.171L140.174,207.083L140.202,207.083L126.971,230L0,230L56.279,132.675ZM166.664,207.083L226.276,207.083L189.643,143.733L137.782,143.733L119.1,111.375L132.331,88.459C132.331,88.459 151.013,120.817 151.013,120.817L176.391,120.817L176.391,120.816L202.863,120.816L266,230L153.433,230L166.664,207.083ZM69.52,109.777L133,0L189.611,97.899L163.139,97.899L133,45.779L95.988,109.785L121.788,154.471L121.778,154.489L121.788,154.489L104.697,184.092L78.235,184.092L95.326,154.489L95.337,154.489L69.52,109.777Z" fill="#FFF" />
</svg>
